# xmcd
#
# Track frame offsets: 
#        150
#        13927
#        16687
#        37424
#        56631
#        73176
#        96396
#        121303
#        154745
#        170862
#        185922
#        213462
#        226129
#
# Disc length: 3222 seconds
#
# Revision: 0
# Processed by: cddbd v1.5.2PL0 Copyright (c) Steve Scherf et al.
# Submitted via: ExactAudioCopy v1.0b1
#
DISCID=c00c940d
DTITLE=Eric Bib - Troubadour Live
DYEAR=1900
DGENRE=
TTITLE0=The Cape
TTITLE1=Introducing Staffan Astner
TTITLE2=New Home
TTITLE3=Troubadour
TTITLE4=Shavin Talk
TTITLE5=Walkin Blues Again
TTITLE6=Tell Riley
TTITLE7=Connected
TTITLE8=New World Comin Trough
TTITLE9=Thanks For The Joy
TTITLE10=For You
TTITLE11=Put Your Love First
TTITLE12=If You Were Not My Woman
EXTD=
EXTT0=
EXTT1=
EXTT2=
EXTT3=
EXTT4=
EXTT5=
EXTT6=
EXTT7=
EXTT8=
EXTT9=
EXTT10=
EXTT11=
EXTT12=
PLAYORDER=
